<?xml version="1.0" encoding="UTF-8" ?>
<!DOCTYPE svg PUBLIC "-//W3C//DTD SVG 1.1//EN" "http://www.w3.org/Graphics/SVG/1.1/DTD/svg11.dtd">
<svg width="225pt" height="225pt" viewBox="0 0 225 225" version="1.1" xmlns="http://www.w3.org/2000/svg">
<path fill="#ffffff" d=" M 0.00 0.00 L 225.00 0.00 L 225.00 225.00 L 0.00 225.00 L 0.00 0.00 Z" />
<path fill="#113352" d=" M 163.90 76.94 C 165.63 74.05 168.49 71.36 171.96 70.95 C 174.02 70.50 174.40 72.81 174.77 74.24 C 175.51 78.09 174.64 82.93 170.98 85.04 C 169.29 85.02 167.61 85.02 165.93 85.05 C 163.44 83.17 162.39 79.79 163.90 76.94 Z" />
<path fill="#113352" d=" M 148.38 83.65 C 146.98 78.17 152.61 73.10 157.77 72.60 C 160.14 76.02 160.38 80.72 158.56 84.41 C 156.65 88.47 149.41 88.36 148.38 83.65 Z" />
<path fill="#113352" d=" M 176.57 85.90 C 175.62 79.93 182.28 75.17 187.81 75.97 C 188.64 79.57 188.92 83.60 186.93 86.90 C 184.95 91.04 177.38 90.86 176.57 85.90 Z" />
<path fill="#113352" d=" M 86.56 89.74 C 90.38 89.67 94.22 89.47 98.04 89.76 C 105.84 97.32 112.65 105.92 120.58 113.36 C 120.71 105.49 120.73 97.61 120.56 89.74 C 124.89 89.62 129.23 89.79 133.57 89.65 C 133.80 104.09 133.49 118.54 133.67 132.99 C 129.76 133.05 125.85 132.99 121.95 133.02 C 114.31 125.06 106.96 116.83 99.29 108.90 C 99.40 116.93 99.28 124.97 99.38 133.00 C 95.05 133.00 90.71 133.00 86.38 133.00 C 86.63 118.58 86.31 104.16 86.56 89.74 Z" />
<path fill="#113352" d=" M 34.00 89.49 C 37.95 89.75 41.95 89.30 45.88 89.74 C 50.50 94.97 54.76 100.52 59.18 105.93 C 63.45 100.44 68.20 95.34 72.31 89.72 C 76.37 89.71 80.43 89.62 84.49 89.68 C 84.46 104.12 84.33 118.56 84.44 133.00 C 80.06 132.98 75.69 133.05 71.31 132.97 C 71.35 124.66 71.33 116.34 71.42 108.03 C 67.10 112.84 63.28 118.08 58.99 122.92 C 54.84 118.10 50.85 113.14 46.96 108.11 C 46.21 116.37 46.95 124.71 46.60 133.00 C 42.40 133.00 38.20 133.00 34.00 133.00 C 34.00 118.50 34.00 104.00 34.00 89.49 Z" />
<path fill="#113352" d=" M 135.67 89.74 C 143.83 89.81 152.01 89.46 160.17 90.06 C 165.63 90.78 171.18 92.90 174.82 97.21 C 179.94 102.65 180.87 110.69 179.77 117.79 C 178.02 125.94 170.57 132.83 162.09 133.01 C 153.25 133.01 144.40 132.99 135.56 133.00 C 135.59 118.58 135.54 104.16 135.67 89.74 Z" />
<path fill="#113352" d=" M 179.86 103.00 C 178.91 96.78 185.33 91.91 191.11 92.40 C 192.72 96.76 192.14 102.36 188.50 105.53 C 185.41 107.00 181.38 106.32 179.86 103.00 Z" />
<path fill="#ffffff" d=" M 148.58 98.49 C 152.32 98.25 156.07 98.43 159.77 99.07 C 167.49 102.64 168.88 113.17 164.92 119.99 C 160.98 124.80 154.14 124.20 148.57 124.15 C 148.63 115.59 148.65 107.04 148.58 98.49 Z" />
</svg>
