<?xml version="1.0" encoding="UTF-8" ?>
<!DOCTYPE svg PUBLIC "-//W3C//DTD SVG 1.1//EN" "http://www.w3.org/Graphics/SVG/1.1/DTD/svg11.dtd">
<svg width="896pt" height="436pt" viewBox="0 0 896 436" version="1.1" xmlns="http://www.w3.org/2000/svg">
<path fill="#fefefe" d=" M 0.00 0.00 L 896.00 0.00 L 896.00 436.00 L 0.00 436.00 L 0.00 0.00 Z" />
<path fill="#04315a" d=" M 706.98 45.94 C 711.55 41.65 717.35 39.11 723.03 36.66 C 726.79 36.25 730.69 35.70 734.43 36.53 C 739.99 41.70 740.86 49.88 742.21 56.96 C 742.58 69.91 740.83 84.12 732.17 94.37 C 725.07 100.70 715.13 102.25 705.92 101.33 C 699.65 99.28 694.34 94.83 691.06 89.15 C 689.74 85.94 689.03 82.50 688.57 79.07 C 688.15 73.37 690.43 67.97 691.65 62.50 L 692.16 62.43 C 695.54 55.72 701.21 50.58 706.98 45.94 Z" />
<path fill="#04315a" d=" M 650.72 46.65 C 654.82 45.14 659.11 44.18 663.52 44.48 C 669.11 48.97 671.17 56.22 672.03 63.05 C 673.11 73.01 673.28 83.37 669.85 92.93 C 667.53 98.66 664.21 104.52 658.39 107.26 C 651.36 110.19 643.37 112.09 635.88 109.94 C 628.98 107.91 624.26 101.73 621.62 95.35 C 619.49 87.60 620.12 78.94 623.79 71.75 C 626.01 68.38 627.27 64.15 630.92 61.96 C 635.97 55.17 643.20 50.34 650.72 46.65 Z" />
<path fill="#04315a" d=" M 777.20 62.13 C 783.09 58.80 789.96 58.16 796.60 58.60 C 801.32 62.51 803.17 68.99 802.98 74.95 C 802.86 80.90 803.34 86.91 802.41 92.82 C 800.07 100.71 797.08 108.53 792.22 115.24 C 789.90 116.95 787.46 118.49 785.01 120.00 C 775.70 121.95 764.78 123.47 756.61 117.41 C 753.06 113.73 749.93 109.35 748.87 104.26 C 748.22 99.14 748.86 93.97 749.71 88.91 C 751.98 83.78 754.61 78.64 758.66 74.66 C 764.13 69.55 770.30 65.12 777.20 62.13 Z" />
<path fill="#04315a" d=" M 612.01 121.99 C 613.15 122.03 614.12 121.63 614.92 120.76 C 626.28 120.71 637.64 120.53 649.01 120.67 C 657.97 121.76 667.01 122.25 676.03 122.81 C 679.99 123.82 684.05 124.40 688.12 124.82 C 690.34 125.74 692.64 126.48 695.01 126.94 C 697.38 127.59 699.78 128.17 702.17 128.80 C 704.07 129.65 706.00 130.42 707.93 131.24 C 713.26 133.18 717.87 136.59 722.98 139.03 C 739.63 150.22 753.09 166.48 759.72 185.53 C 759.87 185.50 760.17 185.45 760.32 185.42 C 760.63 187.98 761.26 190.50 762.14 192.93 C 763.53 201.25 765.80 209.48 765.73 217.98 C 765.68 224.67 765.99 231.39 765.30 238.07 C 763.36 246.76 763.22 256.05 758.92 264.06 C 756.64 267.88 755.59 272.34 752.79 275.85 C 749.87 279.56 747.45 283.64 744.47 287.31 C 737.27 295.16 729.42 302.63 720.03 307.79 C 709.37 312.85 697.93 316.96 685.99 317.01 C 645.06 316.98 604.13 317.03 563.20 316.98 C 562.99 269.67 563.22 222.32 563.16 174.99 C 563.01 157.41 563.48 139.82 562.79 122.25 C 579.18 121.67 595.61 122.18 612.01 121.99 Z" />
<path fill="#04315a" d=" M 90.00 122.00 C 108.34 122.09 126.68 121.83 145.02 122.13 C 152.03 131.95 160.30 140.82 167.64 150.40 C 174.39 158.34 180.85 166.52 187.41 174.61 C 192.64 180.16 196.68 186.73 201.94 192.23 C 204.62 193.86 206.33 190.49 207.82 188.83 C 215.04 180.37 222.22 171.87 229.01 163.06 C 240.46 149.48 251.62 135.67 263.04 122.07 C 281.52 121.98 300.01 121.91 318.50 122.10 C 318.21 176.06 318.79 230.03 318.22 283.99 C 317.58 290.33 318.45 296.69 318.16 303.05 C 318.17 307.61 318.23 312.17 318.51 316.73 C 303.67 317.34 288.81 316.83 273.97 317.00 C 269.00 316.84 263.93 317.52 259.06 316.27 C 258.99 279.67 259.03 243.06 259.04 206.46 C 258.14 206.64 257.17 206.59 256.37 207.07 C 252.48 211.33 249.57 216.51 245.02 220.14 C 241.85 226.05 236.86 230.63 232.92 236.00 C 223.91 246.68 215.68 258.05 206.14 268.28 C 205.62 268.58 204.57 269.19 204.04 269.50 C 200.35 269.88 197.68 267.02 195.60 264.38 C 192.55 260.44 189.13 256.79 186.23 252.74 C 183.72 249.01 180.13 246.14 177.94 242.18 C 168.04 230.56 158.66 218.52 148.99 206.71 C 148.60 206.53 147.82 206.16 147.43 205.98 C 146.60 212.63 146.92 219.33 146.87 226.01 C 146.84 256.16 146.91 286.30 146.83 316.45 C 143.26 317.21 139.59 316.99 135.97 317.00 C 120.65 316.99 105.32 317.00 90.00 317.00 C 90.00 252.00 90.00 187.00 90.00 122.00 Z" />
<path fill="#04315a" d=" M 334.56 122.13 C 351.72 121.85 368.89 122.06 386.06 122.01 C 388.29 121.58 389.61 123.58 390.92 125.00 C 394.33 128.97 397.81 132.87 401.59 136.49 C 412.31 148.09 423.11 159.62 433.85 171.20 C 439.48 177.89 446.18 183.61 451.66 190.44 C 456.78 195.97 462.30 201.13 467.14 206.92 C 472.73 212.99 478.72 218.69 484.03 225.01 C 484.85 225.62 485.67 226.23 486.50 226.83 L 486.49 227.44 C 487.01 227.50 488.03 227.61 488.55 227.67 C 488.54 192.55 488.55 157.43 488.58 122.32 C 497.04 121.67 505.53 122.15 514.00 122.00 C 525.44 122.22 536.92 121.54 548.34 122.37 C 548.03 131.27 548.32 140.19 547.52 149.06 C 547.47 205.01 547.66 260.97 547.33 316.91 C 530.58 317.12 513.82 316.92 497.07 317.02 C 495.44 316.90 493.38 317.33 492.31 315.78 C 478.01 300.06 463.19 284.84 449.05 268.98 C 438.86 258.80 429.58 247.75 419.48 237.49 C 412.44 229.91 405.57 222.16 398.27 214.82 C 396.51 213.03 395.42 210.47 393.00 209.45 C 392.45 245.29 393.17 281.14 392.68 316.99 C 377.77 317.02 362.85 316.99 347.94 317.00 C 343.10 316.97 338.25 317.19 333.44 316.59 C 333.38 270.39 333.44 224.19 333.42 177.99 C 333.63 167.33 332.90 156.63 334.03 146.01 C 333.60 138.07 333.02 129.98 334.56 122.13 Z" />
<path fill="#04315a" d=" M 787.56 139.40 C 794.86 135.25 803.50 132.25 811.95 134.04 C 812.47 134.22 813.51 134.57 814.02 134.75 C 816.93 138.55 819.28 143.11 819.01 148.03 C 818.90 153.85 819.29 159.70 818.62 165.50 C 816.58 168.64 817.14 172.80 814.64 175.71 C 813.34 177.12 813.35 179.01 813.38 180.81 C 812.67 181.66 811.98 182.52 811.29 183.38 C 809.95 185.73 808.44 188.02 806.48 189.91 L 806.76 190.64 L 805.86 190.52 C 802.14 194.59 796.54 196.69 791.07 196.25 C 786.43 195.90 781.59 197.01 777.19 195.08 C 772.31 193.36 768.82 189.27 766.16 185.01 C 764.65 181.20 763.70 177.12 763.51 173.04 C 764.48 167.42 764.84 161.32 768.66 156.76 C 773.09 149.28 780.25 143.87 787.56 139.40 Z" />
<path fill="#fefefe" d=" M 622.73 176.01 C 622.77 170.88 622.17 165.66 623.62 160.67 C 634.39 161.54 645.18 161.36 655.98 161.34 C 666.68 162.94 678.08 165.16 686.35 172.70 C 695.46 179.87 701.33 190.59 703.54 201.87 C 706.18 213.69 705.76 225.97 704.09 237.89 C 702.53 248.80 697.75 259.82 688.59 266.41 C 684.37 268.73 680.30 271.45 675.62 272.75 C 659.11 279.71 640.86 276.89 623.47 277.64 C 623.10 275.77 622.67 273.90 622.69 272.00 C 622.74 240.00 622.69 208.00 622.73 176.01 Z" />
<path fill="#7f8aaf" d=" M 98.86 342.87 C 110.23 334.86 125.54 334.02 138.42 338.60 C 141.65 339.89 145.72 340.05 148.11 342.85 C 148.84 347.18 148.40 351.63 148.51 356.01 C 139.77 352.39 130.89 347.77 121.11 348.61 C 106.97 348.73 94.39 362.28 96.33 376.50 C 96.97 385.41 103.06 393.34 111.25 396.69 C 117.20 399.63 124.11 399.19 130.48 398.27 C 136.89 396.69 143.19 394.15 148.50 390.19 C 149.12 395.15 149.37 400.34 148.17 405.23 C 138.31 410.82 126.34 412.07 115.21 410.84 C 108.48 409.51 101.26 407.84 96.31 402.73 C 90.30 398.57 86.80 391.86 84.30 385.18 C 82.08 379.90 83.21 374.06 83.06 368.52 C 83.53 367.53 84.00 366.53 84.46 365.54 C 84.69 355.96 91.56 348.28 98.86 342.87 Z" />
<path fill="#7f8aaf" d=" M 220.41 336.45 C 230.37 334.85 241.01 336.04 249.81 341.22 C 257.30 346.08 263.95 353.00 266.38 361.81 C 269.33 372.74 268.52 385.38 261.74 394.78 C 255.96 403.90 245.59 409.57 234.99 410.79 C 222.94 412.82 209.77 409.74 200.81 401.19 C 187.79 389.97 185.96 369.52 193.80 354.82 C 199.65 345.37 209.31 338.23 220.41 336.45 Z" />
<path fill="#7f8aaf" d=" M 423.17 351.19 C 430.90 340.81 444.13 335.24 456.95 336.18 C 463.49 335.83 469.59 338.40 475.71 340.31 C 477.57 341.00 479.59 341.72 480.88 343.34 C 481.50 347.09 480.62 350.87 480.23 354.60 C 472.01 351.79 463.98 347.38 455.02 347.95 C 440.94 346.94 428.16 359.99 428.73 373.94 C 428.40 382.99 433.49 392.21 441.65 396.29 C 448.72 400.40 457.37 400.37 465.11 398.38 C 466.73 397.88 469.13 397.80 469.63 395.78 C 470.10 392.56 470.11 389.24 469.60 386.04 C 469.50 385.02 468.95 384.55 467.94 384.62 C 464.51 384.25 461.05 384.32 457.61 384.24 C 456.83 380.98 455.98 377.51 457.00 374.20 C 458.09 372.52 460.26 373.12 461.95 372.96 C 468.88 373.09 475.81 372.80 482.74 373.20 C 482.93 381.13 482.55 389.06 482.75 396.99 C 482.65 399.67 483.03 402.49 482.13 405.06 C 474.02 409.00 464.94 410.88 455.96 411.21 C 446.03 411.14 435.56 408.84 428.02 401.99 C 419.90 395.50 416.09 385.10 415.33 375.00 C 415.63 366.56 417.68 357.83 423.17 351.19 Z" />
<path fill="#7f8aaf" d=" M 731.95 339.82 C 740.09 334.56 750.96 335.23 759.43 339.39 C 760.57 340.13 762.34 340.60 762.70 342.10 C 763.51 346.33 762.96 350.68 762.26 354.89 C 756.57 351.76 750.87 347.15 743.96 348.01 C 739.88 348.07 734.52 351.31 735.70 356.00 C 737.59 361.81 743.59 364.54 748.40 367.56 C 755.59 371.34 762.90 376.69 765.09 384.95 C 766.74 391.90 765.80 400.20 760.28 405.25 C 755.63 410.23 748.42 411.41 741.92 411.09 C 735.71 410.53 729.35 408.60 724.53 404.55 C 722.84 399.82 724.11 394.52 724.26 389.59 C 728.06 390.83 730.15 394.59 733.66 396.33 C 738.32 398.82 744.28 401.05 749.28 398.18 C 752.89 396.57 754.85 391.77 752.79 388.25 C 749.86 382.79 743.98 380.08 738.98 376.91 C 733.31 373.47 727.20 369.56 724.60 363.16 C 720.97 354.99 724.36 344.48 731.95 339.82 Z" />
<path fill="#7f8aaf" d=" M 310.36 337.36 C 313.89 336.97 317.50 336.43 321.04 337.07 C 322.82 337.47 322.59 339.54 322.72 340.93 C 322.88 355.61 322.55 370.30 322.90 384.98 C 322.89 390.94 327.49 396.08 332.91 398.02 C 340.09 400.85 348.98 399.92 355.07 395.07 C 359.45 391.46 360.42 385.43 360.50 380.07 C 360.46 368.37 360.62 356.68 360.48 344.98 C 360.43 342.32 360.67 339.67 361.07 337.05 C 364.74 336.84 368.42 336.82 372.10 336.90 C 373.55 346.54 372.83 356.32 373.01 366.03 C 372.79 375.83 374.07 386.01 370.48 395.38 C 366.61 404.21 357.26 409.83 347.84 410.62 C 337.04 412.27 324.75 410.27 316.87 402.12 C 310.55 395.89 309.65 386.35 309.88 377.95 C 310.20 364.42 309.35 350.86 310.36 337.36 Z" />
<path fill="#7f8aaf" d=" M 546.49 347.46 C 548.09 343.92 548.85 339.59 551.99 337.03 C 554.56 336.62 557.25 336.62 559.79 337.28 C 561.84 339.54 562.65 342.60 563.92 345.32 C 571.41 361.78 578.68 378.36 586.09 394.86 C 588.12 399.96 591.19 404.67 592.23 410.13 C 588.15 410.64 583.94 411.11 579.88 410.21 C 575.73 403.97 573.92 396.41 569.93 390.09 C 565.33 389.32 560.63 389.93 556.00 389.80 C 551.38 389.92 546.72 389.37 542.14 390.13 C 538.19 396.31 536.89 403.89 532.73 409.95 C 528.97 411.49 524.43 410.24 520.39 410.26 C 522.66 401.06 527.45 392.73 530.93 383.96 C 535.90 371.70 541.23 359.59 546.49 347.46 Z" />
<path fill="#7f8aaf" d=" M 631.64 336.80 C 641.08 337.00 650.75 335.70 659.96 338.41 C 667.80 340.53 674.25 347.63 674.73 355.89 C 675.89 363.84 671.24 371.19 665.22 375.95 C 673.19 384.58 678.42 395.22 685.31 404.66 C 686.65 406.26 687.25 408.24 687.56 410.28 C 683.52 410.47 679.44 410.94 675.42 410.40 C 673.92 410.23 673.11 408.81 672.25 407.77 C 667.94 401.66 664.11 395.25 660.10 388.96 C 656.78 383.80 651.07 378.29 644.38 380.32 C 643.59 390.21 644.93 400.28 643.12 410.07 C 639.36 411.27 635.29 410.37 631.42 410.46 C 630.60 405.33 630.98 400.13 630.92 394.96 C 630.91 379.97 630.90 364.98 630.95 349.98 C 630.98 345.58 630.56 341.12 631.64 336.80 Z" />
<path fill="#fefefe" d=" M 227.18 348.26 C 233.98 348.04 241.12 350.14 246.21 354.79 C 251.71 359.53 254.86 366.76 254.93 373.98 C 254.47 382.05 250.44 390.12 243.61 394.61 C 232.19 402.27 214.53 399.85 206.86 388.02 C 202.26 381.77 202.07 373.45 203.58 366.14 C 206.62 355.88 216.65 348.82 227.18 348.26 Z" />
<path fill="#fefefe" d=" M 644.37 350.00 C 644.50 348.69 645.86 348.51 646.91 348.35 C 650.59 347.98 654.39 348.76 657.71 350.39 C 662.52 353.91 662.72 362.25 657.84 365.80 C 654.04 368.71 648.97 367.93 644.51 367.78 C 644.33 361.86 643.57 355.90 644.37 350.00 Z" />
<path fill="#fefefe" d=" M 547.41 377.45 C 550.25 371.25 551.94 364.47 555.95 358.86 C 558.89 365.03 562.20 371.08 564.15 377.66 C 558.58 377.98 552.97 378.11 547.41 377.45 Z" />
</svg>
